<svg width="89" height="388" viewBox="0 0 89 388" fill="none" xmlns="http://www.w3.org/2000/svg">
<path d="M150.338 0.276363L184.067 113.13L178.209 123.636L162.498 152.409L156.012 164.511L140.156 193.326L133.627 205.284L117.815 234.243L111.285 246.201L106.695 254.608L100.064 266.753L84.3528 295.526L77.8668 307.627L62.011 336.443L55.4818 348.4L39.6691 377.36L34.1012 387.78L0.372643 274.926L5.94053 264.506L21.7533 235.546L28.2824 223.589L44.1382 194.773L50.6242 182.672L66.3349 153.899L73.0091 141.899L77.5569 133.347L84.086 121.389L99.8987 92.4295L106.428 80.472L122.284 51.6564L128.77 39.5548L144.48 10.7819L150.338 0.276363Z" fill="rgba(0, 0, 0, 0.1)" fill-opacity="0.35"/>
</svg>
