<svg width="79" height="439" viewBox="0 0 79 439" fill="none" xmlns="http://www.w3.org/2000/svg">
<path d="M46.0397 0.00102913L78.0493 131.556L70.9023 143.17L51.0249 175.468L42.7613 188.896L23.0311 221.16L14.7319 234.441L-5.14542 266.74L-13.4091 280.168L-19.2159 289.603L-27.4796 303.031L-47.2453 335.148L-55.4734 348.722L-75.3863 380.875L-83.6499 394.302L-103.527 426.601L-110.674 438.214L-142.684 306.659L-135.537 295.046L-115.659 262.747L-107.396 249.319L-87.5184 217.021L-79.2548 203.593L-59.4891 171.475L-51.2255 158.048L-45.4186 148.612L-37.1549 135.185L-17.2776 102.886L-8.97838 89.6042L10.7518 57.3406L19.0154 43.913L38.8928 11.6141L46.0397 0.00102913Z" fill="rgba(255, 187, 11, 0.1)" fill-opacity="0.4"/>
</svg>
