<svg width="212" height="446" viewBox="0 0 212 446" fill="none" xmlns="http://www.w3.org/2000/svg">
<path d="M172.642 0.101243L211.42 129.851L204.884 141.813L186.705 175.083L179.147 188.914L161.113 222.141L153.513 235.828L135.334 269.097L127.776 282.929L122.465 292.648L114.908 306.479L96.8311 339.562L89.3166 353.537L71.0946 386.663L63.537 400.494L45.3581 433.764L38.8218 445.726L0.0437096 315.976L6.57996 304.014L24.7589 270.745L32.3165 256.913L50.4954 223.644L58.053 209.812L76.1298 176.73L83.6873 162.898L88.9981 153.179L96.5556 139.348L114.735 106.078L122.335 92.3912L140.369 59.1643L147.926 45.3331L166.105 12.0634L172.642 0.101243Z" fill="rgba(255, 187, 11, 0.1)" fill-opacity="0.4"/>
</svg>
