<svg width="155" height="382" viewBox="0 0 155 382" fill="none" xmlns="http://www.w3.org/2000/svg">
<path d="M126.759 0.880628L154.6 115.305L148.206 125.498L131.027 153.432L123.923 165.187L106.596 193.156L99.4563 204.765L82.1652 232.88L75.0256 244.489L70.0056 252.652L62.7545 264.442L45.5749 292.376L38.4709 304.131L21.1442 332.1L14.0047 343.709L-3.28646 371.824L-9.38647 381.946L-37.2278 267.522L-31.1278 257.399L-13.8367 229.284L-6.69712 217.675L10.6295 189.706L17.7336 177.951L34.9131 150.017L42.1998 138.373L47.1843 130.064L54.3238 118.456L71.615 90.3404L78.7545 78.7315L96.0812 50.7624L103.185 39.0074L120.365 11.0736L126.759 0.880628Z" fill="rgba(0, 0, 0, 0.1)" fill-opacity="0.3"/>
</svg>
