<svg width="47" height="89" viewBox="0 0 47 89" fill="none" xmlns="http://www.w3.org/2000/svg">
<path d="M31.6232 48.2135L33.8079 44.1488L28.0735 20.5811L25.8888 24.6457L31.6232 48.2135ZM12.044 78.6168L14.2288 74.5521L8.45896 50.8389L6.27421 54.9036L12.044 78.6168ZM44.2233 28.2583L46.4081 24.1937L40.6383 0.480477L38.4535 4.54512L44.2233 28.2583ZM6.49366 88.4147L8.6784 84.35L2.9086 60.6368L0.723851 64.7015L6.49366 88.4147ZM19.0584 68.3141L21.2432 64.2494L15.4734 40.5362L13.2886 44.6009L19.0584 68.3141ZM37.1735 38.4155L39.3583 34.3509L33.5885 10.6377L31.4037 14.7023L37.1735 38.4155ZM24.6088 58.5162L26.7935 54.4515L21.0237 30.7383L18.839 34.803L24.6088 58.5162Z" fill="rgba(0, 0, 0, 0.1)"/>
</svg>
