<svg width="10" height="90" viewBox="0 0 10 90" fill="none" xmlns="http://www.w3.org/2000/svg">
<path d="M30.0622 48.4563L32.0336 44.2857L25.0867 21.0414L23.1152 25.2121L30.0622 48.4563ZM12.0829 79.8178L14.0544 75.6471L7.06451 52.2594L5.09308 56.4301L12.0829 79.8178ZM41.6126 27.8851L43.5841 23.7144L36.5942 0.326696L34.6228 4.49736L41.6126 27.8851ZM7.04717 89.8858L9.0186 85.7151L2.02874 62.3274L0.057305 66.498L7.04717 89.8858ZM18.5547 69.1711L20.5261 65.0004L13.5363 41.6127L11.5648 45.7833L18.5547 69.1711ZM35.098 38.3884L37.0694 34.2177L30.0796 10.8299L28.1081 15.0006L35.098 38.3884ZM23.5905 59.1031L25.5619 54.9324L18.572 31.5447L16.6006 35.7154L23.5905 59.1031Z" fill="rgba(0, 0, 0, 0.1)"/>
</svg>
